<svg xmlns="http://www.w3.org/2000/svg" viewBox="0 0 233.71 103.29"><defs><style>.cls-1{fill:#404040;}</style></defs><g id="Layer_2" data-name="Layer 2"><g id="Capa_1" data-name="Capa 1"><path class="cls-1" d="M34.11,2.9V19.08H55.62V2.9Z"/><path class="cls-1" d="M55.62,33.68V70.79a34.87,34.87,0,0,1-2.25,12.52,32.45,32.45,0,0,1-6.26,10.34,29.69,29.69,0,0,1-9.64,7A29.35,29.35,0,0,1,25,103.29H0l10-22.7H22.41q6.38,0,9-2.59a8.75,8.75,0,0,0,2.66-6.5V33.68Z"/><path class="cls-1" d="M62.7,3.9V73.08H84.21V3.9Z"/><path class="cls-1" d="M199.2,0V16.19h21.51V0Z"/><path class="cls-1" d="M231.94,36.63a21.35,21.35,0,0,0-4.85-8,18.43,18.43,0,0,0-7.44-4.5,30.69,30.69,0,0,0-9.46-1.41,24.88,24.88,0,0,0-10.58,2.12,23.34,23.34,0,0,0-7.5,5.38,21.82,21.82,0,0,0-4.43,7.33,23.24,23.24,0,0,0-1.48,8,24.08,24.08,0,0,0,.3,3.78,21.53,21.53,0,0,0,1,3.9H116.71c-1.26,0-1.89-.55-1.89-1.66V33.68H93.31V71.5A8.72,8.72,0,0,1,90.65,78q-2.66,2.59-9,2.59H69.2l-10,22.7h25a29.4,29.4,0,0,0,11.41-2.19,29.7,29.7,0,0,0,9.16-5.91,31.06,31.06,0,0,0,6.38-8.74,33.48,33.48,0,0,0,3.19-10.82,30.07,30.07,0,0,0,5,.36H207a36.68,36.68,0,0,0,11.88-1.72,23,23,0,0,0,8.33-4.78,19.13,19.13,0,0,0,4.9-7.21,25,25,0,0,0,1.6-9.1V48.69A36.11,36.11,0,0,0,231.94,36.63ZM213.28,52.69a6.17,6.17,0,0,1-1.55.69,6.54,6.54,0,0,1-1.78.25,6.45,6.45,0,1,1,3.33-.94Z"/></g></g></svg>